<?xml version="1.0" encoding="iso-8859-1"?>
<!-- Generator: Adobe Illustrator 19.0.0, SVG Export Plug-In . SVG Version: 6.00 Build 0)  -->
<svg version="1.1" id="Layer_1" xmlns="http://www.w3.org/2000/svg" xmlns:xlink="http://www.w3.org/1999/xlink" x="0px" y="0px"
	 viewBox="0 0 512 512" style="enable-background:new 0 0 512 512;" xml:space="preserve">
<circle style="fill:#FEE187;" cx="256" cy="256" r="256"/>
<path style="fill:#FFC61B;" d="M391.871,155.903l-67.287-67.287l-27.021,66.055l-19.003,25.231l-35.79-35.79l-28.343,71.573
	l-16.629,20.009l22.109,22.109l-13.746,45.951c-5.685-5.685-9.637-9.637-9.637-9.637l-32.406-5.575l35.864,35.864l-2.184,7.301
	l15.838,15.838l-15.838,80.175l83.073,83.073C410.584,498.285,512,388.992,512,256c0-0.21-0.007-0.419-0.009-0.629L398.139,141.519
	L391.871,155.903z"/>
<path style="fill:#2E821A;" d="M298.911,271.538c0,0,21.583-48.087,112.597-88.316C411.508,183.222,368.281,246.153,298.911,271.538
	z"/>
<g>
	<path style="fill:#2E5E24;" d="M312.28,256c0,0,8.383-52.036,85.861-114.481C398.139,141.519,372.7,213.504,312.28,256z"/>
	<path style="fill:#2E5E24;" d="M216.093,316.776c0,0-6.475-40.196-66.322-88.429C149.771,228.345,169.422,283.95,216.093,316.776z"
		/>
</g>
<g>
	<path style="fill:#2E821A;" d="M226.419,328.778c0,0-16.672-37.143-86.974-68.22C139.445,260.558,172.835,309.169,226.419,328.778z
		"/>
	<path style="fill:#2E821A;" d="M324.584,198.118c-17.923,0-35.847,0-53.77,0c6.346-36.318,6.346-73.185,0-109.502
		c17.923,0,35.847,0,53.77,0C318.238,124.933,318.238,161.801,324.584,198.118z"/>
	<path style="fill:#2E821A;" d="M324.584,427.72c-17.923,0-35.847,0-53.77,0c6.346-36.318,6.346-73.185,0-109.502
		c17.923,0,35.847,0,53.77,0C318.238,354.535,318.238,391.402,324.584,427.72z"/>
</g>
<path style="fill:#6CAF5F;" d="M324.584,312.92c-17.923,0-35.847,0-53.77,0c6.346-36.318,6.346-73.185,0-109.503
	c17.923,0,35.847,0,53.77,0C318.238,239.735,318.238,276.602,324.584,312.92z"/>
<g>
	<path style="fill:#2E5E24;" d="M324.584,88.616c-8.495,0-16.991,0-25.486,0v109.502c8.495,0,16.991,0,25.486,0
		C318.24,161.801,318.24,124.933,324.584,88.616z"/>
	<path style="fill:#2E5E24;" d="M324.584,318.217c-8.495,0-16.991,0-25.486,0V427.72c8.495,0,16.991,0,25.486,0
		C318.24,391.402,318.24,354.535,324.584,318.217z"/>
</g>
<path style="fill:#477F3C;" d="M324.584,203.417c-8.495,0-16.991,0-25.486,0V312.92c8.495,0,16.991,0,25.486,0
	C318.24,276.602,318.24,239.735,324.584,203.417z"/>
<g>
	<path style="fill:#2E821A;" d="M242.771,235.694c-14.991,0-29.98,0-44.972,0c5.306-30.373,5.306-61.207,0-91.582
		c14.991,0,29.98,0,44.972,0C237.465,174.487,237.465,205.321,242.771,235.694z"/>
	<path style="fill:#2E821A;" d="M242.771,427.72c-14.991,0-29.98,0-44.972,0c5.306-30.374,5.306-61.207,0-91.582
		c14.991,0,29.98,0,44.972,0C237.465,366.513,237.465,397.346,242.771,427.72z"/>
</g>
<path style="fill:#6CAF5F;" d="M242.771,331.707c-14.991,0-29.98,0-44.972,0c5.306-30.374,5.306-61.207,0-91.582
	c14.991,0,29.98,0,44.972,0C237.465,270.5,237.465,301.334,242.771,331.707z"/>
<g>
	<path style="fill:#2E5E24;" d="M242.771,144.112c-7.275,0-14.548,0-21.823,0v91.583c7.275,0,14.548,0,21.823,0
		C237.465,205.321,237.465,174.487,242.771,144.112z"/>
	<path style="fill:#2E5E24;" d="M242.771,336.139c-7.275,0-14.548,0-21.823,0v91.582c7.275,0,14.548,0,21.823,0
		C237.465,397.346,237.465,366.513,242.771,336.139z"/>
</g>
<path style="fill:#477F3C;" d="M242.771,240.125c-7.275,0-14.548,0-21.823,0v91.582c7.275,0,14.548,0,21.823,0
	C237.465,301.334,237.465,270.5,242.771,240.125z"/>
<g>
</g>
<g>
</g>
<g>
</g>
<g>
</g>
<g>
</g>
<g>
</g>
<g>
</g>
<g>
</g>
<g>
</g>
<g>
</g>
<g>
</g>
<g>
</g>
<g>
</g>
<g>
</g>
<g>
</g>
</svg>
